<svg xmlns="http://www.w3.org/2000/svg" xmlns:xlink="http://www.w3.org/1999/xlink" fill="none" version="1.1" width="30.000001907348633" height="30.000001907348633" viewBox="0 0 30.000001907348633 30.000001907348633"><defs><clipPath id="master_svg0_1_09829"><rect x="30.000001907348633" y="0" width="30.000001907348633" height="30.000001907348633" rx="0"/></clipPath><radialGradient cx="0" cy="0" r="1" gradientUnits="userSpaceOnUse" id="master_svg1_1_28419" gradientTransform="translate(75.00000286102295 15.000000953674316) rotate(121.96053831739293) scale(27.278488254437804 13.79967898551304)"><stop offset="0%" stop-color="#FE0000" stop-opacity="1"/><stop offset="100%" stop-color="#FE0000" stop-opacity="0"/></radialGradient><radialGradient cx="0" cy="0" r="1" gradientUnits="userSpaceOnUse" id="master_svg2_1_29603" gradientTransform="translate(75.00000286102295 15.000000953674316) rotate(41.20932226382057) scale(25.6912142184176 13.705744073771736)"><stop offset="0%" stop-color="#FC872B" stop-opacity="1"/><stop offset="100%" stop-color="#FE0000" stop-opacity="0"/></radialGradient><clipPath id="master_svg3_1_29632"><rect x="69.90000247955322" y="6.525000095367432" width="10.200000762939453" height="16.950000762939453" rx="0"/></clipPath></defs><g transform="matrix(-1,0,0,1,60.000003814697266,0)" clip-path="url(#master_svg0_1_09829)"><g transform="matrix(-1,0,0,1,120.00000381469727,0)"><g><ellipse cx="75.00000286102295" cy="15.000000953674316" rx="15.000000953674316" ry="15.000000953674316" fill="#000000" fill-opacity="1"/></g><g><ellipse cx="75.00000286102295" cy="15.000000953674316" rx="14.325000941753387" ry="14.325000941753387" stroke="url(#master_svg1_1_28419)" fill-opacity="0" fill="none" stroke-width="1.350000023841858"/></g><g><ellipse cx="75.00000286102295" cy="15.000000953674316" rx="14.325000941753387" ry="14.325000941753387" stroke="url(#master_svg2_1_29603)" fill-opacity="0" fill="none" stroke-width="1.350000023841858"/></g><g clip-path="url(#master_svg3_1_29632)"><g><path d="M79.96920990142823,7.568074957427978C80.11830990142822,7.853834957427979,80.12510990142822,8.131674957427979,80.12450990142823,8.448174957427979C80.12440990142822,8.525724957427979,80.12440990142822,8.525724957427979,80.12430990142822,8.604834957427979C80.11310990142822,9.166754957427978,80.00220990142822,9.79101495742798,79.64230990142822,10.240964957427979C79.46249990142822,10.277884957427979,79.46249990142822,10.277884957427979,79.24999990142823,10.277634957427978C78.31617990142823,10.31784495742798,77.40682990142822,10.80479495742798,76.76537990142822,11.479614957427978C76.63744990142823,11.656964957427977,76.63744990142823,11.656964957427977,76.56922990142823,11.805574957427979C76.60790990142823,11.783564957427979,76.64659990142822,11.76154495742798,76.68645990142822,11.738854957427979C76.94744990142823,11.591984957427979,77.20120990142823,11.44950495742798,77.48460990142823,11.349234957427978C77.32568990142822,11.514034957427977,77.16096990142822,11.659384957427978,76.98196990142823,11.801504957427978C76.82104990142822,11.936234957427978,76.77103990142822,11.983844957427978,76.70407990142823,12.188584957427977C76.70272990142823,12.234304957427979,76.70138990142823,12.280014957427978,76.69999990142823,12.327114957427979C76.78629990142822,12.391654957427978,76.87260990142822,12.456194957427979,76.96153990142822,12.522694957427978C76.92604990142823,12.56916495742798,76.89056990142822,12.615644957427978,76.85400990142823,12.663524957427978C76.27273990142822,13.439394957427979,76.09010990142822,14.09234495742798,76.17691990142822,15.065194957427979C76.27467990142823,15.544744957427978,76.47722990142822,15.949474957427979,76.74136990142823,16.35885495742798C76.82441990142823,16.489464957427977,76.89478990142823,16.62076495742798,76.96153990142822,16.76016495742798C76.37450990142823,17.504864957427976,76.37450990142823,17.504864957427976,75.97667990142823,17.59956495742798C75.58467990142822,17.636964957427978,75.24792990142822,17.55786495742798,74.93843990142823,17.310764957427978C74.82115990142822,17.197064957427976,74.71360990142823,17.07996495742798,74.60768990142822,16.95576495742798C74.57439990142822,16.917264957427978,74.54109990142823,16.87876495742798,74.50679990142822,16.83916495742798C74.43010990142822,16.74876495742798,74.35521990142823,16.656864957427977,74.28076990142823,16.56466495742798C74.23760990142823,16.58616495742798,74.19445990142822,16.60766495742798,74.14999990142822,16.62976495742798C74.18184990142822,16.91766495742798,74.27098990142822,17.040764957427978,74.48100990142822,17.23686495742798C74.52895990142822,17.28236495742798,74.57691990142823,17.327864957427977,74.62632990142822,17.374664957427978C74.66332990142823,17.408564957427977,74.70033990142822,17.44246495742798,74.73845990142823,17.477264957427977C74.64888990142822,17.683364957427976,74.60839990142823,17.737564957427978,74.41152990142822,17.868464957427978C74.21903990142822,17.895964957427978,74.02551990142823,17.88956495742798,73.83124990142822,17.888864957427977C73.75247990142822,17.890364957427977,73.75247990142822,17.890364957427977,73.67212990142822,17.892064957427976C73.36480990142822,17.892264957427976,73.15282990142822,17.87736495742798,72.90768990142823,17.67286495742798C72.80424990142822,17.53236495742798,72.80424990142822,17.53236495742798,72.72378990142822,17.37956495742798C72.69639990142822,17.32906495742798,72.66900990142823,17.278664957427978,72.64078990142822,17.226764957427978C72.58076990142823,17.08616495742798,72.58076990142823,17.08616495742798,72.58076990142823,16.890564957427976C72.62829990142822,16.877064957427976,72.67583990142822,16.86356495742798,72.72481990142822,16.84956495742798C73.39589990142822,16.644564957427978,74.06896990142822,16.37790495742798,74.47691990142822,15.782314957427978C74.41218990142822,15.76079495742798,74.34745990142822,15.739284957427978,74.28076990142823,15.71711495742798C74.07478990142822,15.821814957427978,73.88447990142822,15.938174957427979,73.69076990142823,16.06345495742798C73.17314990142822,16.39565495742798,72.74174990142822,16.49576495742798,72.12306990142822,16.43423495742798C71.59007990142823,16.306724957427978,71.13459990142822,16.02046495742798,70.84347490142822,15.551844957427978C70.60574690142822,15.092004957427978,70.48217390142823,14.673714957427979,70.55384190142823,14.152504957427979C70.68052490142823,13.944704957427978,70.68052490142823,13.944704957427978,70.88076490142822,13.826544957427979C71.39185990142822,13.783674957427978,71.83048990142822,14.024934957427979,72.25383990142822,14.282884957427978C72.85347990142822,14.48217495742798,73.63584990142822,14.397694957427978,74.21103990142822,14.163454957427978C74.39323990142822,14.060774957427977,74.51067990142822,13.959294957427979,74.59951990142822,13.769494957427979C74.61239990142822,13.55104495742798,74.55372990142823,13.471804957427977,74.41152990142822,13.305004957427979C73.89533990142823,13.00807495742798,73.40155990142823,12.965974957427978,72.81777990142822,12.96274495742798C72.75760990142822,12.961394957427977,72.69742990142822,12.960054957427978,72.63541990142822,12.958664957427978C72.20701990142823,12.956224957427978,71.87382990142822,12.993604957427978,71.53869990142822,13.28462495742798C71.51576990142823,13.31286495742798,71.49284990142823,13.341104957427978,71.46922990142822,13.370194957427978C70.95561990142822,12.956864957427978,70.70109590142822,12.67051495742798,70.61922590142822,12.001154957427978C70.55449490142823,12.033424957427979,70.55449490142823,12.033424957427979,70.48845690142822,12.06634495742798C70.51374090142822,12.520114957427978,70.66070490142822,12.844704957427979,70.88076490142822,13.239814957427978C70.80659490142823,13.268044957427978,70.73242290142822,13.296284957427979,70.65600490142822,13.325374957427979C70.57913690142823,13.36167495742798,70.50226890142822,13.39798495742798,70.42307290142823,13.435384957427978C70.40149490142822,13.499924957427979,70.37991790142823,13.56446495742798,70.35768790142822,13.630964957427977C70.40758390142823,13.60810495742798,70.45748090142823,13.585244957427978,70.50888990142822,13.561694957427978C70.68461090142823,13.500574957427979,70.68461090142823,13.500574957427979,70.88076490142822,13.56577495742798C70.84452290142822,13.594174957427978,70.80827990142822,13.622584957427978,70.77093890142822,13.65184495742798C70.38549690142823,13.960704957427978,70.38549690142823,13.960704957427978,70.22691890142822,14.413274957427978C70.22083190142823,15.111244957427978,70.47825890142822,15.72438495742798,70.94614990142823,16.23865495742798C71.05598990142822,16.34114495742798,71.16777990142822,16.43751495742798,71.28558990142822,16.530764957427976C71.68605990142822,16.86626495742798,71.95180990142822,17.26116495742798,72.24157990142822,17.693264957427978C72.30953990142822,17.79366495742798,72.30953990142822,17.79366495742798,72.37885990142823,17.896064957427978C72.49007990142822,18.06046495742798,72.60095990142823,18.225164957427978,72.71152990142822,18.389964957427978C72.68995990142822,18.43306495742798,72.66837990142822,18.47606495742798,72.64614990142822,18.52036495742798C72.49510990142822,18.32676495742798,72.34406990142823,18.13316495742798,72.18845990142822,17.93366495742798C72.18845990142822,18.195564957427976,72.30342990142822,18.373064957427978,72.42547990142822,18.597764957427977C72.45094990142822,18.645264957427976,72.47641990142822,18.69276495742798,72.50265990142822,18.74166495742798C72.85019990142823,19.382164957427978,73.22366990142822,20.00826495742798,73.59438990142823,20.635664957427977C73.71592990142823,20.84226495742798,73.83529990142823,21.050064957427978,73.95383990142822,21.25846495742798C74.03819990142823,21.12846495742798,74.03819990142823,21.12846495742798,73.97158990142822,20.983664957427976C73.93347990142823,20.89586495742798,73.93347990142823,20.89586495742798,73.89458990142822,20.806164957427978C73.86752990142823,20.742464957427977,73.84047990142822,20.67876495742798,73.81259990142823,20.613164957427976C73.78368990142822,20.54646495742798,73.75477990142822,20.47966495742798,73.72499990142822,20.41096495742798C73.66799990142822,20.279464957427976,73.61144990142822,20.147664957427978,73.55540990142822,20.015764957427976C73.51728990142823,19.92786495742798,73.51728990142823,19.92786495742798,73.47839990142822,19.83826495742798C73.43076990142822,19.693864957427976,73.43076990142822,19.693864957427976,73.49614990142823,19.56346495742798C73.68340990142822,19.606364957427978,73.86963990142823,19.65146495742798,74.05600990142823,19.697964957427978C74.10829990142823,19.70966495742798,74.16059990142823,19.72136495742798,74.21448990142822,19.733464957427977C74.53807990142822,19.81636495742798,74.81800990142823,19.92326495742798,75.04531990142823,20.17436495742798C75.25478990142823,20.594564957427977,75.20677990142822,21.112564957427978,75.21249990142822,21.57216495742798C75.21709990142823,21.79266495742798,75.22298990142822,22.01306495742798,75.22985990142823,22.23356495742798C75.23137990142823,22.28576495742798,75.23288990142822,22.338064957427978,75.23444990142822,22.39196495742798C75.24952990142822,22.774264957427977,75.30916990142822,23.11936495742798,75.45768990142822,23.47496495742798C74.45512990142822,23.43796495742798,73.55911990142822,22.49306495742798,72.85685990142822,21.84746495742798C72.72534990142822,21.727464957427976,72.59068990142822,21.61306495742798,72.45407990142823,21.498864957427976C70.58015390142822,19.86116495742798,70.06425290142822,17.327364957427978,69.89999540142823,14.934814957427978C69.78933460142822,12.522184957427978,70.29402490142822,9.717924957427979,71.46922990142822,7.568074957427978C71.66548990142822,7.418224957427978,71.89520990142822,7.335784957427979,72.12306990142822,7.242117957427978C72.20111990142823,7.209762957427978,72.27916990142822,7.1774089574279785,72.35957990142822,7.144073957427978C74.59056990142822,6.251786957427979,77.91215990142823,6.076748957427979,79.96920990142823,7.568074957427978ZM70.84653990142823,10.767844957427979C70.70465690142822,10.951604957427978,70.62989490142822,11.130664957427978,70.55384190142823,11.349234957427978C70.61857290142822,11.349234957427978,70.68330290142822,11.349234957427978,70.74999590142822,11.349234957427978C70.83851790142822,11.241664957427979,70.92566990142822,11.132964957427978,71.01152990142822,11.02327495742798C71.07626990142822,11.001754957427979,71.14099990142822,10.980244957427978,71.20768990142822,10.958074957427979C71.12879990142822,11.03068495742798,71.12879990142822,11.03068495742798,71.04830990142823,11.104764957427978C70.89580990142822,11.267944957427979,70.83922290142823,11.330854957427977,70.81537990142822,11.544804957427978C70.94318990142823,11.62668495742798,70.94318990142823,11.62668495742798,71.07895990142822,11.573584957427979C71.13222990142822,11.554674957427977,71.18549990142822,11.535764957427979,71.24037990142823,11.516284957427978C71.93783990142822,11.302694957427978,72.51646990142822,11.42408495742798,73.16922990142822,11.740384957427977C73.44678990142822,11.893824957427977,73.71943990142822,12.055354957427978,73.98753990142822,12.224694957427978C74.03785990142822,12.25563495742798,74.08818990142822,12.286584957427978,74.14003990142822,12.318454957427978C74.18453990142822,12.346764957427979,74.22904990142823,12.375074957427978,74.27490990142822,12.404244957427979C74.45128990142823,12.472994957427979,74.55921990142822,12.442824957427979,74.73845990142823,12.392304957427978C74.76002990142823,12.327764957427979,74.78160990142823,12.26322495742798,74.80383990142822,12.196734957427978C74.55348990142822,11.787394957427978,74.15987990142823,11.52806495742798,73.75768990142822,11.284044957427978C73.69295990142822,11.241014957427979,73.62822990142823,11.197984957427979,73.56152990142822,11.153654957427978C74.00212990142822,11.363564957427979,74.41676990142822,11.572554957427979,74.80383990142822,11.87077495742798C74.84699990142822,11.827744957427978,74.89014990142822,11.78471495742798,74.93460990142822,11.740384957427977C74.25165990142823,10.98883495742798,73.40703990142822,10.323444957427979,72.36136990142822,10.219064957427978C71.72162990142822,10.199974957427978,71.28916990142822,10.295284957427977,70.84653990142823,10.767844957427979ZM70.74999590142822,16.56466495742798C70.66610090142822,16.694764957427978,70.66610090142822,16.694764957427978,70.72890890142823,16.842864957427977C70.75331390142823,16.903864957427977,70.77771990142823,16.96476495742798,70.80286490142822,17.027564957427977C70.82989990142822,17.09536495742798,70.85693390142822,17.16316495742798,70.88478790142823,17.233064957427978C70.91447990142822,17.30556495742798,70.94416990142822,17.378164957427977,70.97475990142823,17.452864957427977C71.00469990142822,17.52656495742798,71.03463990142822,17.600364957427978,71.06548990142822,17.676364957427978C71.62297990142822,19.032064957427977,72.32496990142822,20.210564957427977,73.28364990142822,21.32366495742798C73.31913990142823,21.36506495742798,73.35462990142823,21.40646495742798,73.39118990142822,21.44916495742798C73.58546990142823,21.67156495742798,73.78017990142823,21.864264957427977,74.01922990142822,22.040764957427978C74.01922990142822,21.81786495742798,73.98405990142822,21.77126495742798,73.85856990142823,21.594064957427978C73.80657990142822,21.51976495742798,73.80657990142822,21.51976495742798,73.75353990142823,21.44396495742798C73.71579990142823,21.390764957427976,73.67805990142823,21.33766495742798,73.63917990142822,21.28286495742798C73.56065990142822,21.170464957427978,73.48224990142822,21.05786495742798,73.40394990142822,20.94526495742798C73.36440990142822,20.888464957427978,73.32486990142823,20.83166495742798,73.28412990142823,20.77316495742798C72.36022990142823,19.43346495742798,71.53561990142822,18.023064957427977,70.81537990142822,16.56466495742798C70.79380290142822,16.56466495742798,70.77222590142823,16.56466495742798,70.74999590142822,16.56466495742798Z" fill="#FE0000" fill-opacity="1"/></g><g><path d="M72.97300052642822,18.781153369451904C73.22636152642822,18.777349759451905,73.47971552642822,18.775044029451905,73.73309652642823,18.773004289451904C73.84043352642823,18.771365569451905,73.84043352642823,18.771365569451905,73.94993852642823,18.769693749451903C74.64259052642822,18.765508219451906,74.64259052642822,18.765508219451906,74.93454052642822,18.911537469451904C74.99927052642822,19.008348469451903,74.99927052642822,19.008348469451903,75.06531052642822,19.107114469451904C75.27913052642822,19.149856469451905,75.49746052642823,19.137302469451903,75.71507052642822,19.135636469451903C75.80527052642822,19.137590469451904,75.80527052642822,19.137590469451904,75.89730052642822,19.139583469451903C75.98397052642822,19.139520469451906,75.98397052642822,19.139520469451906,76.07238052642822,19.139456469451904C76.15177052642822,19.139637469451905,76.15177052642822,19.139637469451905,76.23276052642822,19.139822469451904C76.42213052642822,19.095656469451903,76.45810052642823,19.000131469451905,76.56915052642822,18.846345669451903C76.76235052642822,18.769963299451906,76.95040052642823,18.773533299451906,77.15659052642822,18.774786899451904C77.21770052642822,18.774996989451903,77.27881052642822,18.775207079451903,77.34177052642822,18.775423539451904C77.40506052642823,18.775969779451906,77.46836052642823,18.776516019451904,77.53358052642822,18.777078809451904C77.59789052642822,18.777372939451904,77.66220052642822,18.777667069451905,77.72845052642822,18.777970109451903C77.88690052642822,18.778736969451906,78.04533052642822,18.779808669451903,78.20377052642823,18.781153369451904C78.18449052642822,18.937083469451903,78.18449052642822,18.937083469451903,78.13838052642822,19.107114469451904C77.97062052642822,19.195329469451906,77.82594052642823,19.256470469451905,77.64800052642822,19.314915469451904C77.60333052642822,19.331008469451906,77.55866052642823,19.347101469451903,77.51263052642823,19.363682469451906C76.92172052642822,19.570556469451905,76.37017052642823,19.654096469451904,75.74367052642822,19.653100469451903C75.67468052642822,19.652995469451906,75.60568052642822,19.652890469451904,75.53459052642822,19.652782469451903C74.97006052642823,19.644002469451905,74.48707052642823,19.560339469451904,73.95376952642822,19.367884469451905C73.89005052642823,19.346790469451904,73.82633152642822,19.325697469451903,73.76068052642822,19.303965469451903C73.41915852642822,19.181995469451905,73.22499252642822,19.048713469451904,72.97300052642822,18.781153369451904Z" fill="#FF0000" fill-opacity="1"/></g><g><path d="M77.94224060455322,19.628655050075928C77.85197060455322,19.83415595681763,77.74996060455322,19.962602956817626,77.58365060455323,20.112758956817625C77.53864060455322,20.153978956817628,77.49363060455322,20.195198956817627,77.44726060455322,20.237667956817628C77.40023060455323,20.280064956817625,77.35320060455322,20.322461956817627,77.30474060455322,20.366142956817626C77.03580760455323,20.609487956817627,76.77388460455322,20.849534956817628,76.53954060455322,21.126804956817626C76.48458660455323,21.19176495681763,76.42963360455322,21.256724956817628,76.37301460455322,21.323654956817627C76.35143720455322,21.323654956817627,76.32986030455322,21.323654956817627,76.30762950455322,21.323654956817627C76.22906120455322,20.438319956817626,76.22906120455322,20.438319956817626,76.47926460455322,20.109447956817625C76.85567560455323,19.750327956817628,77.43469060455323,19.628655050075928,77.94224060455322,19.628655050075928Z" fill="#FA0000" fill-opacity="1"/></g><g><path d="M77.22312830767822,17.020960330963135C77.49187130767822,17.239989330963134,77.74270130767822,17.451413330963135,77.94236130767823,17.738075330963134C77.94236130767823,17.781102330963133,77.94236130767823,17.824129330963135,77.94236130767823,17.868460330963135C77.11898230767822,17.918451330963133,77.11898230767822,17.918451330963133,76.89339530767822,17.795883330963136C76.80630130767823,17.705479330963136,76.80630130767823,17.705479330963136,76.70005130767822,17.542498330963134C76.87441030767822,17.368652330963133,77.04876930767823,17.194806330963136,77.22312830767822,17.020960330963135Z" fill="#FF0000" fill-opacity="1"/></g><g><path d="M75.65397212017822,18.324806690216064C75.69712612017823,18.324806690216064,75.74028012017823,18.324806690216064,75.78474212017822,18.324806690216064C75.87558612017823,18.452679690216065,75.96298312017822,18.583076690216064,76.04628012017822,18.715960690216065C75.83051112017823,18.715960690216065,75.61474212017822,18.715960690216065,75.39243412017822,18.715960690216065C75.47573142017822,18.583076690216064,75.56312812017822,18.452679690216065,75.65397212017822,18.324806690216064Z" fill="#F80000" fill-opacity="1"/></g><g><path d="M71.73081302642822,10.69730806350708C71.83869802642822,10.69730806350708,71.94658202642822,10.69730806350708,72.05773602642822,10.69730806350708C72.05773602642822,10.71882156350708,72.05773602642822,10.74033496350708,72.05773602642822,10.76250036350708C71.94985102642822,10.76250036350708,71.84196702642822,10.76250036350708,71.73081302642822,10.76250036350708C71.73081302642822,10.74098696350708,71.73081302642822,10.71947346350708,71.73081302642822,10.69730806350708Z" fill="#FF0000" fill-opacity="1"/></g><g><path d="M77.48471927642822,11.284037113189697Q77.61548827642822,11.349229413189697,77.61548827642822,11.349229413189697L77.48471927642822,11.284037113189697Z" fill="#FF0000" fill-opacity="1"/></g><g><path d="M77.61533451080322,11.218844890594482Q77.74610351080322,11.284037190594482,77.74610351080322,11.284037190594482L77.61533451080322,11.218844890594482Z" fill="#FF0000" fill-opacity="1"/></g><g><path d="M77.74619388580322,11.1536545753479Q77.87696288580322,11.2188468753479,77.87696288580322,11.2188468753479L77.74619388580322,11.1536545753479Z" fill="#FF0000" fill-opacity="1"/></g><g><path d="M73.10385990142822,10.958079814910889Q73.23462890142822,11.023272114910888,73.23462890142822,11.023272114910888L73.10385990142822,10.958079814910889Z" fill="#FF0000" fill-opacity="1"/></g><g><path d="M72.90781497955322,10.892882823944092Q73.03858397955322,10.958075123944091,73.03858397955322,10.958075123944091L72.90781497955322,10.892882823944092Z" fill="#FF0000" fill-opacity="1"/></g><g><path d="" fill="#FF0000" fill-opacity="1"/></g><g><path d="" fill="#FF0000" fill-opacity="1"/></g><g><path d="" fill="#950000" fill-opacity="1"/></g><g><path d="" fill="#FF0000" fill-opacity="1"/></g><g><path d="" fill="#FF0000" fill-opacity="1"/></g><g><path d="" fill="#FF0000" fill-opacity="1"/></g><g><path d="" fill="#FF0000" fill-opacity="1"/></g><g><path d="" fill="#FF0000" fill-opacity="1"/></g></g></g></g></svg>