<svg xmlns="http://www.w3.org/2000/svg" xmlns:xlink="http://www.w3.org/1999/xlink" fill="none" version="1.1" width="30.000001907348633" height="30.000001907348633" viewBox="0 0 30.000001907348633 30.000001907348633"><defs><clipPath id="master_svg0_1_09873"><rect x="30.000001907348633" y="0" width="30.000001907348633" height="30.000001907348633" rx="0"/></clipPath></defs><g transform="matrix(-1,0,0,1,60.000003814697266,0)" clip-path="url(#master_svg0_1_09873)"><g><path d="M36.92991956359863,3L53.67049956359863,3C54.06999956359863,3,54.43899956359863,3.213685,54.63819956359863,3.5603540000000002L59.515399563598635,12.04788C59.76829956359863,12.48804,59.69319956359863,13.0436,59.33239956359863,13.4005L45.907699563598634,26.6825C45.472799563598635,27.1127,44.773299563598634,27.1127,44.338399563598635,26.6825L30.931852563598632,13.4185C30.562702363598632,13.0532,30.493576563598634,12.4815,30.765032563598634,12.03858L35.978399563598636,3.533123C36.18143956359863,3.201875,36.54173956359863,3,36.92991956359863,3ZM51.508999563598636,6.78939L51.508999563598636,9.17088L46.74029956359863,9.17088L46.74029956359863,10.82202C50.089499563598636,10.99848,52.602299563598635,11.72316,52.62099956359863,12.59178L52.620899563598634,14.4026C52.60219956359863,15.2713,50.089499563598636,15.9959,46.74029956359863,16.1724L46.74029956359863,20.2245L43.573799563598634,20.2245L43.573799563598634,16.1724C40.22451956359863,15.9959,37.711719563598635,15.2713,37.693119563598636,14.4026L37.69317956359863,12.59178C37.71183956359863,11.72316,40.22451956359863,10.99848,43.573799563598634,10.82202L43.573799563598634,9.17088L38.80503956359863,9.17088L38.80503956359863,6.78939L51.508999563598636,6.78939ZM45.157099563598635,14.9284C48.73129956359863,14.9284,51.71869956359863,14.3156,52.44979956359863,13.4972C51.829799563598634,12.80328,49.587299563598634,12.2571,46.74029956359863,12.1071L46.74029956359863,13.8359C46.22999956359863,13.8628,45.700299563598634,13.8769,45.157099563598635,13.8769C44.61379956359863,13.8769,44.084099563598635,13.8628,43.573799563598634,13.8359L43.573799563598634,12.1071C40.72679956359863,12.2571,38.484219563598636,12.80328,37.86423956359863,13.4972C38.595339563598635,14.3156,41.582799563598634,14.9284,45.157099563598635,14.9284Z" fill-rule="evenodd" fill="#D56819" fill-opacity="1"/></g></g></svg>